<?xml version="1.0" encoding="utf-8"?>
<!-- Generator: Adobe Illustrator 24.2.1, SVG Export Plug-In . SVG Version: 6.00 Build 0)  -->
<svg version="1.1" xmlns="http://www.w3.org/2000/svg" xmlns:xlink="http://www.w3.org/1999/xlink" x="0px" y="0px"
	 viewBox="0 0 50 50" style="enable-background:new 0 0 50 50;" xml:space="preserve">
<style type="text/css">
	.st0{display:none;}
	.st1{display:inline;}
	.st2{fill:#3E3E3E;}
</style>
<g id="Layer_1" class="st0">
	<g class="st1">
		<path class="st2" d="M36.2,17.3c0,2,0,4.1,0,6.1c0,6.4-5.4,11.4-11.7,11.1c-5.2-0.3-9.8-4.6-10.3-9.8c-0.2-1.9-0.1-3.9-0.1-5.8
			c0-2.6,0-5.2,0-7.7c0-5.6,4.1-10.3,9.6-11.1c6-0.8,11.9,3.7,12.4,9.7c0.2,2.3,0.1,4.7,0.1,7C36.2,17,36.2,17.2,36.2,17.3
			C36.2,17.3,36.2,17.3,36.2,17.3z M17.2,16.3c5.4,0,10.6,0,15.8,0c0-2.2,0.2-4.3,0-6.4c-0.3-3.7-3.6-6.6-7.5-6.8
			c-3.7-0.2-7.3,2.5-7.9,6.2C17.2,11.6,17.3,14,17.2,16.3z M17.4,19.6c0,1.7-0.1,3.3,0,4.9c0.4,3.7,3.5,6.6,7.2,6.8
			c3.8,0.2,7.2-2.2,8.1-5.8c0.5-1.9,0.2-3.9,0.3-5.9c0,0,0,0-0.1-0.1C27.7,19.6,22.5,19.6,17.4,19.6z"/>
		<path class="st2" d="M23.5,40.1c-1.7-0.2-3.3-0.6-4.9-1.3c-6.4-3-9.9-8.1-10.2-15.2c-0.1-1.8,0-3.7,0-5.5c0-0.4,0.2-0.9,0.4-1.2
			c0.4-0.5,1-0.7,1.6-0.5c0.6,0.2,1,0.6,1.1,1.3c0.1,0.6,0,1.2,0,1.7c0,1.6,0,3.1,0,4.7c0.3,6.1,4.9,11.4,10.9,12.5
			c7.5,1.4,14.7-3.5,15.9-11.1c0.1-0.9,0.2-1.8,0.2-2.7c0-1.5,0-3.1,0-4.6c0-0.4,0.2-0.9,0.4-1.2c0.3-0.5,1-0.8,1.6-0.6
			c0.6,0.2,1.1,0.6,1.1,1.3c0,3.9,0.5,7.8-1,11.5c-2.5,6.2-7,9.8-13.7,10.8c-0.1,0-0.1,0-0.2,0c0,2.2,0,4.4,0,6.7c0.2,0,0.4,0,0.5,0
			c1.8,0,3.7,0,5.5,0c1.1,0,1.8,0.7,1.8,1.6c0,0.9-0.7,1.6-1.8,1.6c-5.2,0-10.3,0-15.5,0c-1,0-1.7-0.7-1.8-1.6
			c0-0.9,0.7-1.6,1.7-1.6c1.8,0,3.7,0,5.5,0c0.2,0,0.4,0,0.6,0C23.5,44.6,23.5,42.4,23.5,40.1z"/>
	</g>
</g>
<g id="Layer_2">
	<g>
		<path class="st2" d="M41.1,18.5c2-0.7,4-1.3,5.9-2c1.7-0.6,3,0.2,3,2.1c0,5.3,0,10.5,0,15.8c0,1.9-1.2,2.7-3.1,2.1
			c-1.9-0.6-3.8-1.3-5.9-2c0,1.3,0,2.4,0,3.6c0,1.9-0.7,2.7-2.6,2.7c-11.9,0-23.8,0-35.7,0c-1.9,0-2.6-0.8-2.6-2.6
			c0-8.3,0-16.5,0-24.8c0-2.3,0.6-2.9,3-2.9c11.7,0,23.4,0,35,0c2.3,0,3,0.7,3,3c0,1.6,0,3.2,0,4.8C41,18.1,41,18.2,41.1,18.5z
			 M17.4,25.6c0,2,0,3.9,0,5.9c0,1.2,0.9,1.7,1.9,1c2.6-2,5.3-3.9,7.9-5.9c0.9-0.7,0.9-1.4,0-2c-2.6-1.9-5.2-3.7-7.8-5.5
			c-0.3-0.2-1-0.4-1.3-0.2c-0.4,0.2-0.6,0.8-0.7,1.3C17.4,21.9,17.4,23.8,17.4,25.6z"/>
	</g>
</g>
</svg>
